<?xml version="1.0" encoding="UTF-8"?>
<svg version="1.1" xmlns="http://www.w3.org/2000/svg" width="619" height="619">
<path d="M0 0 C0.87205078 -0.020625 1.74410156 -0.04125 2.64257812 -0.0625 C3.48111328 -0.06765625 4.31964844 -0.0728125 5.18359375 -0.078125 C6.33492798 -0.09214355 6.33492798 -0.09214355 7.50952148 -0.10644531 C10.09934383 0.3432087 10.93825078 1.22791895 12.5625 3.25 C13.81837582 5.76175164 13.68554933 7.462369 13.68275452 10.2739563 C13.68481651 11.86835541 13.68481651 11.86835541 13.68692017 13.4949646 C13.68152725 15.25146835 13.68152725 15.25146835 13.67602539 17.04345703 C13.67617142 18.27269897 13.67631744 19.50194092 13.6764679 20.76843262 C13.67588954 24.14426342 13.67086537 27.52003348 13.66389394 30.89585352 C13.65765358 34.42193073 13.65705606 37.9480087 13.65586853 41.47409058 C13.65275723 48.15348324 13.64454655 54.83285959 13.63451904 61.51224506 C13.62335166 69.11553025 13.61784588 76.71881621 13.61282361 84.32210755 C13.60236378 99.96474783 13.58476822 115.60737181 13.5625 131.25 C4.54707905 131.31996611 -4.46824632 131.3730452 -13.483881 131.40543652 C-17.67164425 131.42099429 -21.85921975 131.44204815 -26.046875 131.47631836 C-30.09936708 131.50926931 -34.15168025 131.52692704 -38.20429611 131.53463173 C-39.73901556 131.54011193 -41.27372687 131.55081018 -42.80836868 131.56719017 C-59.9626464 131.74275707 -75.52412547 129.55803417 -88.46484375 117.34765625 C-97.85394564 107.36360137 -98.93968048 95.67004959 -98.82861328 82.51855469 C-98.81252802 80.25394464 -98.82853159 77.99111856 -98.84765625 75.7265625 C-98.86780209 62.55163594 -96.65106564 51.38108057 -87.65625 41.2421875 C-73.0301908 27.39538555 -51.79832089 27.79307644 -32.9375 27.5625 C-31.03513424 27.52923051 -29.13278955 27.49473247 -27.23046875 27.45898438 C-22.63293157 27.37520546 -18.03543301 27.30788995 -13.4375 27.25 C-13.44797363 26.60450195 -13.45844727 25.95900391 -13.46923828 25.29394531 C-13.51087272 22.36266998 -13.53684975 19.43145696 -13.5625 16.5 C-13.57925781 15.48421875 -13.59601563 14.4684375 -13.61328125 13.421875 C-13.61972656 12.4421875 -13.62617188 11.4625 -13.6328125 10.453125 C-13.64328613 9.55239258 -13.65375977 8.65166016 -13.66455078 7.72363281 C-13.42131993 5.07372419 -12.86689958 3.48159444 -11.4375 1.25 C-7.91191767 -0.51279117 -3.88354409 0.02286119 0 0 Z M-68.1328125 55.45703125 C-72.75369261 61.80728266 -71.77500821 69.9603911 -71.75317383 77.41723633 C-71.75001365 79.67773674 -71.77350839 81.93692656 -71.79882812 84.19726562 C-71.80110163 85.65104003 -71.80180437 87.10481792 -71.80078125 88.55859375 C-71.80376221 89.86626709 -71.80674316 91.17394043 -71.80981445 92.52124023 C-71.25750127 98.05270207 -69.72910409 101.86388829 -65.875 106 C-56.06655767 113.17565763 -43.29973438 111.59458642 -31.8125 111.4375 C-25.41875 111.375625 -19.025 111.31375 -12.4375 111.25 C-12.4375 90.46 -12.4375 69.67 -12.4375 48.25 C-18.46 48.188125 -24.4825 48.12625 -30.6875 48.0625 C-32.56211914 48.03518799 -34.43673828 48.00787598 -36.36816406 47.97973633 C-53.42775071 47.72855035 -53.42775071 47.72855035 -68.1328125 55.45703125 Z " fill="#595656" transform="translate(287.4375,238.75)"/>
<path d="M0 0 C1.2992038 -0.01268417 2.59840759 -0.02536835 3.9369812 -0.03843689 C5.36049559 -0.03638344 6.78400888 -0.03339375 8.20751953 -0.02954102 C9.67424765 -0.03410569 11.14097364 -0.03941212 12.60769653 -0.04542542 C15.68956145 -0.05437073 18.77116757 -0.05192373 21.85302734 -0.04199219 C25.76766815 -0.03059629 29.68139422 -0.05055985 33.59591484 -0.07990932 C36.6315158 -0.0984431 39.6669055 -0.09794354 42.70254898 -0.0922718 C44.1431823 -0.09212016 45.58383142 -0.09803257 47.02441025 -0.11056328 C59.33354925 -0.20241747 71.09462819 1.13297708 80.77392578 9.40405273 C87.61435691 16.4509355 89.87746364 22.35220759 89.82885742 32.01831055 C89.82900345 32.77967316 89.82914948 33.54103577 89.82929993 34.32546997 C89.82860458 36.83606845 89.8208299 39.34659226 89.81298828 41.85717773 C89.81112276 43.60023966 89.80969949 45.34330211 89.80870056 47.08636475 C89.80488597 51.66977389 89.7950647 56.25315125 89.78399658 60.83654785 C89.77375973 65.51529511 89.76919807 70.1940475 89.76416016 74.87280273 C89.75344149 84.04990002 89.73637775 93.22697373 89.71533203 102.40405273 C79.34429907 102.49707074 68.9733667 102.56797832 58.60200024 102.61130142 C53.78521591 102.63210304 48.96871873 102.66028368 44.15209961 102.70581055 C39.49661278 102.74953488 34.84140071 102.77324557 30.18572426 102.78356171 C28.4168497 102.79090565 26.64798877 102.80524573 24.87923241 102.82697296 C10.95859459 102.99104405 0.37255518 101.95506979 -10.11669922 91.84936523 C-18.33422588 82.58058741 -18.94179829 73.3439866 -18.28466797 61.40405273 C-17.02392375 53.50416008 -12.48531656 46.79593205 -6.29638672 41.79858398 C1.98044821 36.31819425 9.95847016 36.08414924 19.64892578 35.98999023 C20.88199966 35.97062408 22.11507355 35.95125793 23.38551331 35.93130493 C27.30788342 35.87172321 31.23028323 35.82520885 35.15283203 35.77905273 C37.81887906 35.74191305 40.48487108 35.70180052 43.15087891 35.66186523 C49.6722557 35.56603915 56.1937058 35.48092924 62.71533203 35.40405273 C62.60796578 33.62331213 62.48525492 31.84349162 62.35595703 30.06420898 C62.28924805 29.07300049 62.22253906 28.08179199 62.15380859 27.06054688 C61.91885196 24.18048823 61.91885196 24.18048823 59.46533203 21.84155273 C54.77228316 19.3883681 51.20669441 18.1553919 45.87109375 18.1328125 C44.71995087 18.12262589 43.56880798 18.11243927 42.38278198 18.10194397 C41.14932037 18.09980392 39.91585876 18.09766388 38.64501953 18.09545898 C36.03173592 18.07031277 33.41845472 18.04491456 30.80517578 18.01928711 C26.68590304 17.98844688 22.56661038 17.96622304 18.44726562 17.94775391 C14.47133796 17.92885802 10.49577781 17.8867652 6.52001953 17.84545898 C5.28250946 17.84534317 4.04499939 17.84522736 2.76998901 17.84510803 C1.05273117 17.82509987 1.05273117 17.82509987 -0.69921875 17.8046875 C-1.70783966 17.79961685 -2.71646057 17.7945462 -3.75564575 17.7893219 C-6.28466797 17.40405273 -6.28466797 17.40405273 -8.1088562 16.04112244 C-9.81744774 13.66226936 -9.68302384 11.80018046 -9.65966797 8.90405273 C-9.66740234 7.94499023 -9.67513672 6.98592773 -9.68310547 5.99780273 C-9.28466797 3.40405273 -9.28466797 3.40405273 -8.15255737 1.76719666 C-5.43560625 -0.21557352 -3.34140337 0.0157759 0 0 Z M8.71533203 61.40405273 C6.10340897 64.99544694 5.71533203 66.94762171 5.71533203 71.40405273 C6.50823852 75.8072143 8.39432673 78.37183051 11.71533203 81.40405273 C17.51027726 83.60308367 22.87572654 83.66787872 29.02392578 83.59936523 C29.99064713 83.59653534 30.95736847 83.59370544 31.9533844 83.59078979 C35.01999655 83.5796568 38.08630918 83.55456497 41.15283203 83.52905273 C43.24071842 83.51901404 45.32860941 83.50988975 47.41650391 83.50170898 C52.51631958 83.4814475 57.61549325 83.44228559 62.71533203 83.40405273 C62.71533203 74.82405273 62.71533203 66.24405273 62.71533203 57.40405273 C56.14927709 57.31204107 49.58547394 57.23245479 43.01928711 57.18432617 C40.78743901 57.16425589 38.55564321 57.1369934 36.32397461 57.10229492 C33.10924346 57.05357602 29.89520976 57.03103758 26.68017578 57.01342773 C25.68823715 56.99278259 24.69629852 56.97213745 23.67430115 56.9508667 C17.46273174 56.9488712 13.76927363 57.71212762 8.71533203 61.40405273 Z " fill="#585555" transform="translate(330.28466796875,267.595947265625)"/>
<path d="M0 0 C1.96333031 -0.01418472 1.96333031 -0.01418472 3.96632385 -0.02865601 C5.39934591 -0.02328241 6.83236522 -0.0171285 8.26538086 -0.01025391 C9.73929488 -0.01227606 11.21320792 -0.01518869 12.68711853 -0.01895142 C15.78158054 -0.0233778 18.87578301 -0.01694035 21.97021484 -0.00292969 C25.91192404 0.01405782 29.85301567 0.00439025 33.79470158 -0.01364708 C36.84303811 -0.02456663 39.89123209 -0.02099969 42.93957329 -0.0132637 C44.39104728 -0.01127869 45.84253472 -0.01366047 47.293993 -0.02070236 C59.82283736 -0.06809815 70.51236766 1.54006781 80.66772461 9.38818359 C86.04468327 15.24503308 87.81816361 19.33967153 87.78125 27.234375 C87.78139603 28.04421341 87.78154205 28.85405182 87.7816925 29.68843079 C87.78099438 32.37222956 87.77320665 35.05595941 87.76538086 37.73974609 C87.76351632 39.59776776 87.76209259 41.45578992 87.76109314 43.31381226 C87.75727076 48.20960848 87.74744284 53.10537514 87.73638916 58.00115967 C87.72616905 62.99474691 87.72159423 67.98833891 87.71655273 72.98193359 C87.70582034 82.78402993 87.68874725 92.58610431 87.66772461 102.38818359 C77.44439176 102.50453292 67.22121894 102.59312847 56.99735641 102.64724445 C52.24889323 102.67323034 47.50088625 102.70842462 42.75268555 102.76538086 C38.16201608 102.82009674 33.57178271 102.84968671 28.98081207 102.86256981 C27.23785802 102.87173924 25.4949252 102.88964338 23.75215912 102.91683388 C11.31554515 103.10298011 -0.22009944 102.21802566 -9.80102539 93.20068359 C-18.09965155 83.37781997 -19.26704989 74.14121026 -18.59741211 61.7421875 C-17.76989224 54.3950912 -13.82115671 48.46850835 -8.64477539 43.38818359 C0.10930848 36.79396717 9.32238523 35.80899281 19.99194336 35.99755859 C21.21935745 36.00321838 22.44677155 36.00887817 23.71138 36.01470947 C27.59307525 36.03692037 31.47381309 36.08709019 35.35522461 36.13818359 C38.00299764 36.15826825 40.65078529 36.17651555 43.29858398 36.19287109 C49.75528531 36.23673508 56.21143653 36.30349333 62.66772461 36.38818359 C62.55847919 34.61788137 62.43457418 32.84847947 62.30444336 31.07958984 C62.23700928 30.09418213 62.1695752 29.10877441 62.10009766 28.09350586 C61.83413022 25.14034983 61.83413022 25.14034983 59.48022461 22.32568359 C54.80008695 19.10158876 50.4298703 18.14124132 44.80175781 18.11694336 C43.67071121 18.10675674 42.53966461 18.09657013 41.37434387 18.08607483 C40.16791733 18.08393478 38.96149078 18.08179474 37.71850586 18.07958984 C35.15405029 18.05444721 32.58959722 18.02904895 30.02514648 18.00341797 C25.98926094 17.97458493 21.95342383 17.95033368 17.91748047 17.93188477 C14.01763974 17.91299043 10.11817383 17.87090392 6.21850586 17.82958984 C5.00600662 17.82947403 3.79350739 17.82935822 2.54426575 17.82923889 C0.86188057 17.80923073 0.86188057 17.80923073 -0.85449219 17.78881836 C-1.842332 17.78374771 -2.83017181 17.77867706 -3.84794617 17.77345276 C-6.33227539 17.38818359 -6.33227539 17.38818359 -8.1497345 16.0252533 C-9.86740518 13.64736798 -9.73066474 11.78846346 -9.70727539 8.88818359 C-9.71500977 7.92912109 -9.72274414 6.97005859 -9.73071289 5.98193359 C-9.33227539 3.38818359 -9.33227539 3.38818359 -8.20314026 1.75033569 C-5.47168337 -0.23840213 -3.35570396 0.00694396 0 0 Z M7.29272461 63.07568359 C5.16988589 67.40300868 5.13567679 69.59975318 5.66772461 74.38818359 C7.44033375 78.5864684 9.58032 80.44180045 13.66772461 82.38818359 C18.62292354 83.78311704 23.67897982 83.51395418 28.78100586 83.48583984 C30.23533272 83.48371742 30.23533272 83.48371742 31.71903992 83.48155212 C34.80613328 83.47596872 37.89315328 83.46341923 40.98022461 83.45068359 C43.07722877 83.44566645 45.17423407 83.44110392 47.27124023 83.43701172 C52.40345248 83.42685697 57.53550672 83.40727824 62.66772461 83.38818359 C62.66772461 74.80818359 62.66772461 66.22818359 62.66772461 57.38818359 C56.08367085 57.31922725 49.50087549 57.25951755 42.91674805 57.22338867 C40.67809803 57.20832395 38.43947742 57.18786826 36.20092773 57.16186523 C32.97884859 57.12538077 29.7571605 57.10843376 26.53491211 57.09521484 C25.53781219 57.07973099 24.54071228 57.06424713 23.51339722 57.04829407 C16.68410192 57.04664874 12.02848984 57.71679136 7.29272461 63.07568359 Z " fill="#585555" transform="translate(529.332275390625,267.61181640625)"/>
<path d="M0 0 C2.27625185 -0.00969649 4.55159739 -0.04070192 6.82763672 -0.07226562 C8.27164176 -0.07879641 9.71565328 -0.08404659 11.15966797 -0.08789062 C12.47821777 -0.09723633 13.79676758 -0.10658203 15.15527344 -0.11621094 C18.41748047 0.24023438 18.41748047 0.24023438 20.37109375 1.64355469 C21.41748047 3.24023438 21.41748047 3.24023438 21.41748047 5.11523438 C20.00337268 8.12021342 17.79056956 9.92404587 15.41748047 12.24023438 C14.55509766 13.11421875 13.69271484 13.98820313 12.80419922 14.88867188 C11.91345703 15.7884375 11.02271484 16.68820313 10.10498047 17.61523438 C9.22197266 18.50984375 8.33896484 19.40445313 7.42919922 20.32617188 C4.57051611 23.15076507 1.54861476 25.76603766 -1.48754883 28.39697266 C-5.02009786 31.50508887 -8.4201744 34.75142505 -11.83251953 37.99023438 C-16.80384859 42.6891026 -21.78546474 47.37271617 -26.83251953 51.99023438 C-27.76064453 52.84101563 -28.68876953 53.69179688 -29.64501953 54.56835938 C-31.82272827 56.54914765 -34.01035372 58.5156626 -36.20751953 60.47460938 C-37.41589016 61.56310964 -38.62422427 62.65165045 -39.83251953 63.74023438 C-40.40647461 64.24522461 -40.98042969 64.75021484 -41.57177734 65.27050781 C-42.96622917 66.53297096 -44.28211205 67.88109881 -45.58251953 69.24023438 C-45.90369126 72.21252555 -45.90369126 72.21252555 -44.21240234 73.875 C-43.57657227 74.45958984 -42.94074219 75.04417969 -42.28564453 75.64648438 C-41.22748535 76.6302002 -41.22748535 76.6302002 -40.14794922 77.63378906 C-39.38385742 78.32891602 -38.61976562 79.02404297 -37.83251953 79.74023438 C-37.05553711 80.45856445 -36.27855469 81.17689453 -35.47802734 81.91699219 C-33.18649108 84.03247486 -30.88559851 86.13733341 -28.58251953 88.24023438 C-27.46740446 89.26569812 -26.3527526 90.29166603 -25.23876953 91.31835938 C-23.31875984 93.08352957 -21.39563461 94.84531761 -19.46923828 96.60351562 C-16.35150666 99.45124072 -13.24657322 102.31241923 -10.14501953 105.17773438 C-9.60603027 105.67547363 -9.06704102 106.17321289 -8.51171875 106.68603516 C-5.7596612 109.22784897 -3.00869681 111.77084165 -0.25830078 114.31445312 C0.56214722 115.07242188 0.56214722 115.07242188 1.39916992 115.84570312 C2.48620147 116.85085605 3.57199778 117.85734666 4.65649414 118.86523438 C7.28368207 121.3008356 9.93141703 123.70069471 12.64404297 126.04101562 C13.15370605 126.48622559 13.66336914 126.93143555 14.18847656 127.39013672 C15.57516566 128.59736655 16.97252811 129.79230541 18.37060547 130.98632812 C20.62567759 133.4694896 21.11518872 134.94409167 21.41748047 138.24023438 C16.59404268 142.75333101 10.46205177 141.83544267 4.25561523 141.85107422 C2.12035851 141.86513312 -0.00899089 141.93243605 -2.14306641 142.00195312 C-12.04296105 142.16456838 -12.04296105 142.16456838 -15.84179688 139.88378906 C-17.5989623 138.10219779 -19.06412339 136.22690713 -20.58251953 134.24023438 C-21.87292135 133.04851131 -23.19197576 131.88718379 -24.53564453 130.75585938 C-28.57086887 127.27212864 -32.4592075 123.65217876 -36.33251953 119.99023438 C-42.01957352 114.63527113 -47.7428818 109.32682467 -53.51220703 104.06054688 C-57.77507642 100.15784071 -61.98471898 96.19773483 -66.19873047 92.24243164 C-70.35790643 88.34902291 -74.58663133 84.5586774 -78.94580078 80.88867188 C-81.73005999 78.08447764 -82.5149506 75.83709327 -82.95751953 71.92773438 C-82.19968739 64.47571834 -78.3532006 60.73642969 -72.85595703 56.18945312 C-70.29343469 53.99237641 -67.94900713 51.64677023 -65.58251953 49.24023438 C-62.68659996 46.30905246 -59.78009382 43.47620263 -56.64501953 40.80273438 C-53.29326857 37.93851083 -50.17695536 34.87689345 -47.08251953 31.74023438 C-43.41404733 28.02177447 -39.65102727 24.50355245 -35.67626953 21.11523438 C-33.04266712 18.75678446 -30.56422479 16.25580801 -28.08251953 13.74023438 C-23.74595655 9.35535314 -19.27845098 5.2330317 -14.58251953 1.24023438 C-11.86914962 -1.47313554 -3.92183132 0.01014048 0 0 Z " fill="#585555" transform="translate(136.58251953125,228.759765625)"/>
<path d="M0 0 C0.83080078 0.00386719 1.66160156 0.00773438 2.51757812 0.01171875 C3.37673828 0.03621094 4.23589844 0.06070313 5.12109375 0.0859375 C5.98412109 0.08722656 6.84714844 0.08851563 7.73632812 0.08984375 C14.13621652 0.17935268 14.13621652 0.17935268 17.55859375 2.4609375 C18.55864679 5.46109662 18.6743496 7.43517506 18.65625 10.56640625 C18.65302734 11.54931641 18.64980469 12.53222656 18.64648438 13.54492188 C18.63810547 14.56908203 18.62972656 15.59324219 18.62109375 16.6484375 C18.61658203 17.68419922 18.61207031 18.71996094 18.60742188 19.78710938 C18.59563385 22.34511016 18.5791789 24.90299483 18.55859375 27.4609375 C19.66895996 27.48075684 20.77932617 27.50057617 21.92333984 27.52099609 C26.03473977 27.59694831 30.14578093 27.6856811 34.25683594 27.77832031 C36.03768848 27.81665315 37.81861959 27.85149839 39.59960938 27.8828125 C42.15653609 27.92837021 44.71291985 27.98637857 47.26953125 28.046875 C48.06853851 28.05842621 48.86754578 28.06997742 49.69076538 28.08187866 C55.33085034 28.23319409 55.33085034 28.23319409 57.55859375 30.4609375 C57.859375 33.17578125 57.859375 33.17578125 57.87109375 36.3984375 C57.88785156 37.45933594 57.90460938 38.52023437 57.921875 39.61328125 C57.55859375 42.4609375 57.55859375 42.4609375 56.54638672 44.10693359 C53.41479679 46.24004557 50.05619493 45.94231486 46.390625 45.97265625 C45.59581223 45.99060745 44.80099945 46.00855865 43.98210144 46.02705383 C41.44515274 46.0812072 38.90839268 46.11506778 36.37109375 46.1484375 C34.65036434 46.18160624 32.92965985 46.21609549 31.20898438 46.25195312 C26.99232353 46.33693623 22.77571911 46.40372292 18.55859375 46.4609375 C18.60020956 53.2240821 18.6724829 59.9864002 18.76611328 66.74902344 C18.79434479 69.04972877 18.81554841 71.35053149 18.82958984 73.65136719 C18.85098861 76.95819029 18.89762483 80.26383976 18.94921875 83.5703125 C18.95044739 84.59960876 18.95167603 85.62890503 18.95294189 86.68939209 C18.99528528 92.22184979 18.99528528 92.22184979 21.34667969 97.07910156 C25.74286433 99.82550389 29.74460724 99.61303009 34.87890625 99.70703125 C36.31511089 99.73994234 37.75130866 99.7731544 39.1875 99.80664062 C41.44347836 99.85420495 43.69942358 99.89871137 45.95556641 99.93774414 C48.13862318 99.97734554 50.32114324 100.02888339 52.50390625 100.08203125 C53.80859863 100.1070874 55.11329102 100.13214355 56.45751953 100.15795898 C59.55859375 100.4609375 59.55859375 100.4609375 61.55859375 102.4609375 C61.859375 105.17578125 61.859375 105.17578125 61.87109375 108.3984375 C61.88785156 109.45933594 61.90460938 110.52023437 61.921875 111.61328125 C61.55859375 114.4609375 61.55859375 114.4609375 60.54736328 116.11401367 C57.40187378 118.24434335 54.04563082 117.88802341 50.375 117.859375 C49.56425522 117.86224518 48.75351044 117.86511536 47.91819763 117.86807251 C46.19749252 117.87011509 44.47676429 117.86457168 42.75610352 117.85205078 C40.16172034 117.83618593 37.56893997 117.85179401 34.97460938 117.87109375 C22.24557127 117.88810749 9.47690986 117.49544326 -0.44140625 108.4609375 C-7.11110258 100.71548369 -8.74352015 92.58138621 -8.73193359 82.62988281 C-8.73865082 81.78657913 -8.74536804 80.94327545 -8.75228882 80.07441711 C-8.77114605 77.31257091 -8.77518551 74.55096888 -8.77734375 71.7890625 C-8.78377579 69.85951642 -8.79050446 67.92997131 -8.79751587 66.00042725 C-8.80945462 61.96917456 -8.81319976 57.93800739 -8.81201172 53.90673828 C-8.8118077 48.73931403 -8.83921005 43.57243464 -8.87355614 38.40513992 C-8.89576847 34.42632517 -8.89985115 30.44764331 -8.89879227 26.46877289 C-8.90115292 24.5629563 -8.91000248 22.65713631 -8.925457 20.75138092 C-8.94502025 18.09199843 -8.93931951 15.43381522 -8.92724609 12.77441406 C-8.93848511 11.98784927 -8.94972412 11.20128448 -8.96130371 10.3908844 C-8.92011381 6.82637587 -8.73609984 4.84784601 -6.54545593 1.97171021 C-4.12545806 0.23407693 -2.94970177 -0.03206539 0 0 Z " fill="#585555" transform="translate(445.44140625,252.5390625)"/>
<path d="M0 0 C9.24 0 18.48 0 28 0 C28 13.86 28 27.72 28 42 C18.76 42 9.52 42 0 42 C0 28.14 0 14.28 0 0 Z " fill="#004A99" transform="translate(37,229)"/>
<path d="M0 0 C9.24 0 18.48 0 28 0 C28 13.53 28 27.06 28 41 C18.76 41 9.52 41 0 41 C0 27.47 0 13.94 0 0 Z " fill="#8DC21E" transform="translate(37,328)"/>
<path d="M0 0 C8.25 0 16.5 0 25 0 C25 13.53 25 27.06 25 41 C16.75 41 8.5 41 0 41 C0 27.47 0 13.94 0 0 Z " fill="#009FE8" transform="translate(0,279)"/>
</svg>
